<svg xmlns="http://www.w3.org/2000/svg" viewBox="0 0 520 980" role="img" aria-label="Diagrama de flujo Practica 3 - Frecuencimetro (principal + ISR Timer1)">
  <rect width="520" height="980" fill="#e2e8f0"/>
  <defs>
    <style>
      .title { font: 13px sans-serif; fill: #14213d; }
      .label { font: 12px sans-serif; fill: #1e293b; }
      .small { font: 10px sans-serif; fill: #475569; }
      .start { fill: #22d3ee; stroke: #0e7490; stroke-width: 2; }
      .proc { fill: #f1f5f9; stroke: #14213d; stroke-width: 2; }
      .io { fill: #cbd5e1; stroke: #334155; stroke-width: 2; }
      .dec { fill: #fca311; stroke: #b45309; stroke-width: 2; }
      .arrow { stroke: #64748b; stroke-width: 2; fill: none; marker-end: url(#arr); }
      .lane { fill: #f8fafc; stroke: #cbd5e1; stroke-width: 2; }
    </style>
    <marker id="arr" markerWidth="8" markerHeight="8" refX="6" refY="3" orient="auto">
      <path d="M0,0 L6,3 L0,6 Z" fill="#64748b"/>
    </marker>
  </defs>

  <text x="260" y="26" text-anchor="middle" class="title">Practica 3 - Frecuencimetro - Programa principal + ISR Timer1</text>

  <!-- Lanes -->
  <rect x="22" y="50" width="476" height="570" rx="10" class="lane"/>
  <text x="260" y="72" text-anchor="middle" class="small">DIAGRAMA 1: PROGRAMA PRINCIPAL</text>

  <rect x="22" y="650" width="476" height="300" rx="10" class="lane"/>
  <text x="260" y="672" text-anchor="middle" class="small">DIAGRAMA 2: INTERRUPCION TIMER1</text>

  <!-- MAIN -->
  <ellipse cx="260" cy="106" rx="72" ry="24" class="start"/>
  <text x="260" y="110" text-anchor="middle" class="label">INICIO</text>

  <line x1="260" y1="130" x2="260" y2="152" class="arrow"/>
  <rect x="120" y="152" width="280" height="50" rx="6" class="proc"/>
  <text x="260" y="172" text-anchor="middle" class="label">Configurar PIC18F4550</text>
  <text x="260" y="190" text-anchor="middle" class="small">Digitales; RA4/T0CKI entrada; PORTD salida</text>

  <line x1="260" y1="202" x2="260" y2="224" class="arrow"/>
  <rect x="120" y="224" width="280" height="46" rx="6" class="proc"/>
  <text x="260" y="252" text-anchor="middle" class="label">Inicializar variables</text>
  <text x="260" y="268" text-anchor="middle" class="small">FLAG_1S=0, CNT_50MS=20, displays=000</text>

  <line x1="260" y1="278" x2="260" y2="300" class="arrow"/>
  <rect x="120" y="300" width="280" height="46" rx="6" class="proc"/>
  <text x="260" y="328" text-anchor="middle" class="label">Configurar Timer0 (contador)</text>

  <line x1="260" y1="346" x2="260" y2="368" class="arrow"/>
  <rect x="120" y="368" width="280" height="46" rx="6" class="proc"/>
  <text x="260" y="396" text-anchor="middle" class="label">Limpiar TMR0H:TMR0L</text>

  <line x1="260" y1="414" x2="260" y2="436" class="arrow"/>
  <rect x="120" y="436" width="280" height="46" rx="6" class="proc"/>
  <text x="260" y="464" text-anchor="middle" class="label">Encender Timer0</text>

  <line x1="260" y1="482" x2="260" y2="504" class="arrow"/>
  <rect x="120" y="504" width="280" height="46" rx="6" class="proc"/>
  <text x="260" y="532" text-anchor="middle" class="label">Configurar Timer1 (50 ms)</text>

  <line x1="260" y1="550" x2="260" y2="572" class="arrow"/>
  <rect x="120" y="572" width="280" height="46" rx="6" class="proc"/>
  <text x="260" y="600" text-anchor="middle" class="label">Habilitar IRQ + encender T1</text>

  <line x1="260" y1="618" x2="260" y2="640" class="arrow"/>
  <rect x="120" y="640" width="280" height="46" rx="6" class="io"/>
  <text x="260" y="668" text-anchor="middle" class="label">Multiplexar displays</text>
  <text x="260" y="684" text-anchor="middle" class="small">Centenas ? Decenas ? Unidades</text>

  <line x1="260" y1="694" x2="260" y2="716" class="arrow"/>
  <polygon points="260,716 360,766 260,816 160,766" class="dec"/>
  <text x="260" y="770" text-anchor="middle" class="label">-FLAG_1S = 1?</text>

  <!-- NO path loops back -->
  <path d="M 160 766 L 70 766 L 70 663 L 120 663" class="arrow"/>
  <text x="90" y="754" class="small">NO</text>

  <!-- YES -->
  <line x1="260" y1="816" x2="260" y2="838" class="arrow"/>
  <rect x="120" y="838" width="280" height="46" rx="6" class="proc"/>
  <text x="260" y="866" text-anchor="middle" class="label">Limpiar FLAG_1S</text>

  <line x1="260" y1="884" x2="260" y2="906" class="arrow"/>
  <rect x="120" y="906" width="280" height="46" rx="6" class="proc"/>
  <text x="260" y="934" text-anchor="middle" class="label">Convertir conteo a BCD</text>

  <!-- ISR SECTION -->
  <ellipse cx="90" cy="720" rx="64" ry="18" class="start"/>
  <text x="90" y="724" text-anchor="middle" class="small">INTERRUPCION TMR1</text>

  <line x1="90" y1="740" x2="90" y2="758" class="arrow"/>
  <rect x="36" y="758" width="108" height="40" rx="6" class="proc"/>
  <text x="90" y="783" text-anchor="middle" class="small">Guardar contexto</text>

  <line x1="90" y1="798" x2="90" y2="818" class="arrow"/>
  <polygon points="90,818 144,846 90,874 36,846" class="dec"/>
  <text x="90" y="850" text-anchor="middle" class="small">-TMR1IF?</text>

  <line x1="90" y1="874" x2="90" y2="896" class="arrow"/>
  <rect x="36" y="896" width="108" height="50" rx="6" class="proc"/>
  <text x="90" y="916" text-anchor="middle" class="small">Limpiar flag</text>
  <text x="90" y="934" text-anchor="middle" class="small">+ recargar TMR1</text>

  <line x1="90" y1="946" x2="90" y2="966" class="arrow"/>
  <rect x="180" y="720" width="150" height="44" rx="6" class="proc"/>
  <text x="255" y="746" text-anchor="middle" class="small">CNT_50MS--</text>

  <polygon points="255,770 320,804 255,838 190,804" class="dec"/>
  <text x="255" y="808" text-anchor="middle" class="small">-CNT=0?</text>

  <rect x="346" y="720" width="140" height="88" rx="6" class="proc"/>
  <text x="416" y="742" text-anchor="middle" class="small">Si CNT=0:</text>
  <text x="416" y="760" text-anchor="middle" class="small">CNT?20</text>
  <text x="416" y="778" text-anchor="middle" class="small">capturar TMR0</text>
  <text x="416" y="796" text-anchor="middle" class="small">FLAG_1S?1</text>

  <rect x="180" y="862" width="150" height="44" rx="6" class="proc"/>
  <text x="255" y="888" text-anchor="middle" class="small">Restaurar contexto</text>

  <rect x="180" y="914" width="150" height="34" rx="16" class="start"/>
  <text x="255" y="936" text-anchor="middle" class="small">RETFIE</text>
</svg>
